<?xml version="1.0" standalone="no"?> <!DOCTYPE svg PUBLIC "-//W3C//DTD SVG 1.0//EN" "http://www.w3.org/TR/2001/REC-SVG-20010904/DTD/svg10.dtd" > <svg xmlns="http://www.w3.org/2000/svg" width="100%" height="100%">
<defs >
<font id="acaslonproregular0" horiz-adv-x="818" ><font-face
    font-family="Adobe Caslon Pro"
    units-per-em="2048"
    panose-1="2 5 5 2 5 5 10 2 4 3"
    ascent="1505"
    descent="-543"
    alphabetic="0" />
<missing-glyph horiz-adv-x="1024" d="M0 0V1434H1024V0H0ZM512 809L860 1331H164L512 809ZM573 717L922 195V1239L573 717ZM164 102H860L512 625L164 102ZM102 1239V195L451 717L102 1239Z" />
<glyph unicode=" " glyph-name="space" horiz-adv-x="520" />
<glyph unicode="!" glyph-name="exclam" horiz-adv-x="520" d="M268 -25Q249 -25 229 -19T187 -1T153 37T139 96Q139 134 170 172T268 211Q314 211 348 177T383 88Q383 38 350 7T268 -25ZM264 1399Q310 1399 340 1369T367 1278Q367 1269 331 910T293 436Q293 422
279 422H242Q227 422 227 442Q225 551 196 897T166 1278Q166 1326 194 1362T264 1399Z" />
<glyph unicode="&quot;" glyph-name="quotedbl" horiz-adv-x="757" d="M252 944H182Q180 1000 151 1184T121 1395Q121 1437 147 1459T217 1481Q311 1481 311 1397Q311 1368 283 1184T252 944ZM578 944H510Q508 1000 479 1184T449 1395Q449 1437 474 1459T543 1481Q639
1481 639 1397Q639 1368 610 1184T578 944Z" />
<glyph unicode="#" glyph-name="numbersign" horiz-adv-x="1024" d="M592 539L657 856H436L369 539H592ZM477 -8L569 430H346L254 2Q251 -17 247 -24T233 -31H141Q127 -31 133 -2L227 430H-4Q-22 430 -16 449L4 524Q7 539 27 539H250L315 856H102Q84 856 78 859T74
870L90 950Q95 965 117 965H338L430 1380Q433 1399 446 1399H537Q551 1399 545 1378L459 965H680L766 1380Q772 1397 780 1398Q783 1399 786 1399H877Q890 1399 887 1376L801 965H1024Q1034 965 1038 962T1042 950L1024 870Q1021 856 993 856H778L711 539H938Q951
539 956 535T961 522L940 440Q938 430 915 430H688L598 -6Q592 -31 578 -31H485Q471 -31 477 -8Z" />
<glyph unicode="$" glyph-name="dollar" horiz-adv-x="1024" d="M594 -88H555Q541 -88 541 -68L543 33Q525 31 488 34T432 41L428 -70Q428 -88 414 -88H373Q364 -88 361 -84T358 -68L362 57Q313 75 260 117Q230 139 217 139Q203 139 186 111Q174 90 152 90T133
117Q138 143 151 280T166 432Q166 446 180 446L211 444Q223 444 223 430Q226 352 239 312Q252 272 279 229Q316 171 365 143L379 666Q299 690 244 745Q147 839 147 995Q147 1128 274 1239Q326 1286 395 1309L399 1425Q399 1437 402 1441T414 1446H455Q469 1446
469 1425L467 1319Q521 1325 575 1315L578 1425Q578 1438 581 1442T592 1446H633Q647 1446 647 1421L643 1303Q675 1295 717 1278Q737 1268 754 1280L774 1300Q788 1313 803 1313Q819 1313 819 1282Q819 1124 825 1001Q825 990 815 987L786 981Q776 981 774 987Q751
1112 688 1174L645 1210L629 754Q891 677 891 403Q891 278 813 173T610 41L608 -68Q608 -80 606 -84T594 -88ZM561 768L573 1239Q552 1250 521 1254T465 1253L453 795Q477 783 561 768ZM385 819L393 1235Q339 1208 310 1150T281 1034Q281 926 322 870Q332 856 343
846T369 829T385 819ZM449 643L434 117Q454 97 545 102L557 616Q517 627 449 643ZM625 594L612 117Q673 141 715 197T758 342Q758 527 625 594Z" />
<glyph unicode="%" glyph-name="percent" horiz-adv-x="1536" d="M348 602Q437 602 467 686Q496 778 496 961Q496 1337 332 1337Q303 1337 274 1320T227 1266Q184 1176 184 950Q184 800 221 702Q241 656 279 629T348 602ZM338 1399Q406 1399 459 1371T545 1300T600
1198T632 1085T645 971Q642 769 562 655T348 541Q272 541 214 573T125 652T73 758T47 864T41 952Q41 1071 71 1169T170 1333T338 1399ZM1225 1339L393 -4Q379 -31 373 -31Q363 -31 336 -14Q316 -3 312 0T307 10Q307 18 317 35L1149 1382Q1157 1399 1165 1399Q1174
1399 1198 1386Q1233 1367 1233 1358Q1233 1357 1225 1339ZM1198 43Q1287 43 1317 127Q1346 219 1346 401Q1346 778 1182 778Q1153 778 1124 761T1077 707Q1034 617 1034 391Q1034 241 1071 143Q1091 97 1129 70T1198 43ZM1188 840Q1256 840 1309 812T1395 741T1450
639T1482 526T1495 412Q1492 210 1412 96T1198 -18Q1134 -18 1083 4T1000 63T945 143T911 235T896 321T891 393Q891 480 909 558T961 700T1054 802T1188 840Z" />
<glyph unicode="&amp;" glyph-name="ampersand" horiz-adv-x="1689" d="M1454 -31Q1408 -31 1366 -20T1285 15T1217 60T1154 120T1102 180T1054 243T1014 295Q923 184 889 149Q712 -31 504 -31Q444 -31 384 -17T268 28T169 101T100 202T74 330Q74 518 240 676Q326
760 477 844Q375 903 320 972T264 1100T299 1222T384 1336T493 1417T596 1450Q710 1450 798 1360T883 1165Q880 1091 806 1006T657 883Q763 827 886 713T1090 483Q1150 559 1219 668T1292 817Q1295 843 1278 862T1229 881H1194Q1180 881 1180 895V940Q1180 950
1194 950Q1196 950 1274 947T1393 944Q1426 944 1475 945T1562 948T1604 950Q1618 950 1618 936V893Q1618 879 1604 879H1569Q1492 879 1465 869T1413 819Q1386 777 1276 621T1130 428Q1265 275 1286 256Q1316 225 1335 208T1392 161T1474 117T1563 102Q1606 102
1648 124T1720 177T1766 229T1788 262Q1794 271 1804 264L1835 246Q1841 243 1835 227Q1823 201 1807 174T1756 108T1682 40T1582 -10T1454 -31ZM582 92Q630 92 677 107T758 141T831 195T888 249T936 304T969 342Q923 406 883 457T783 578T654 705T518 801Q398
735 319 627T242 399Q244 317 296 245T425 133T582 92ZM596 1376Q522 1376 464 1303T406 1139Q406 1087 467 1027T614 913Q675 959 700 988Q762 1062 762 1171Q762 1209 743 1255T683 1338T596 1376Z" />
<glyph unicode="&apos;" glyph-name="quotesingle" horiz-adv-x="421" d="M248 944H178Q176 1000 147 1184T117 1395Q117 1437 143 1459T213 1481Q307 1481 307 1397Q307 1368 279 1184T248 944Z" />
<glyph unicode="(" glyph-name="parenleft" horiz-adv-x="675" d="M123 588Q123 742 157 872T260 1147Q349 1343 530 1516Q551 1530 569 1530Q583 1530 596 1520T610 1501Q610 1484 592 1464Q262 1122 262 588Q262 52 594 -287Q610 -306 610 -324Q610 -332 596
-343T569 -354Q550 -354 530 -338Q489 -300 460 -271T389 -193T310 -89T242 31Q123 271 123 588Z" />
<glyph unicode=")" glyph-name="parenright" horiz-adv-x="675" d="M553 588Q553 434 519 304T416 29Q324 -171 145 -338Q126 -354 106 -354Q93 -354 80 -343T66 -324Q66 -307 84 -289Q414 55 414 588Q414 1125 82 1462Q66 1483 66 1501Q66 1509 79 1519T106 1530Q125
1530 145 1516Q190 1474 216 1447T286 1370T367 1264T434 1145Q553 904 553 588Z" />
<glyph unicode="*" glyph-name="asterisk" horiz-adv-x="671" d="M336 817Q303 817 287 837T270 889Q270 897 279 936T299 1017T320 1096T330 1135H326Q319 1129 277 1087T195 1008T147 965Q122 948 94 951T49 981Q40 1002 39 1016T46 1043T63 1063T80 1075Q95
1085 203 1117T324 1149V1153Q309 1156 199 1185T74 1221Q50 1232 39 1253T43 1309Q75 1366 141 1329Q158 1321 240 1246T326 1163L330 1167Q322 1194 296 1296T270 1413Q270 1443 286 1462T336 1481Q372 1481 386 1464T401 1413Q401 1394 374 1285T342 1165L346
1161Q353 1170 434 1248T530 1335Q552 1349 578 1344T621 1313Q656 1255 594 1221Q577 1211 469 1182T350 1153V1149Q374 1143 480 1113T600 1077Q666 1048 625 981Q609 955 579 953T524 967Q508 976 429 1053T346 1139L342 1135Q347 1125 374 1017T401 889Q401
817 336 817Z" />
<glyph unicode="+" glyph-name="plus" horiz-adv-x="1024" d="M575 82H453V434H115V549H453V901H575V549H909V434H575V82Z" />
<glyph unicode="," glyph-name="comma" horiz-adv-x="520" d="M236 236Q298 236 356 182T414 39Q414 -22 393 -81T342 -183T276 -262T215 -317T174 -346Q171 -348 162 -353T146 -362T133 -365Q109 -365 109 -346Q109 -332 127 -315Q272 -182 272 -57Q272 -38 261
-20T238 4Q237 4 229 7T215 12T199 20T181 30T163 43T147 60T134 81T124 108T121 139Q121 179 152 207T236 236Z" />
<glyph unicode="-" glyph-name="hyphen" horiz-adv-x="827" d="M106 498V588Q106 597 110 599T125 602H698Q711 602 716 598T721 580V502Q721 487 696 487H125Q106 484 106 498Z" />
<glyph unicode="." glyph-name="period" horiz-adv-x="520" d="M266 -25Q221 -25 180 3T139 96Q139 134 169 172T266 211Q313 211 347 177T381 88Q381 38 348 7T266 -25Z" />
<glyph unicode="/" glyph-name="slash" horiz-adv-x="716" d="M4 33L614 1473Q624 1491 641 1485L707 1458Q723 1453 715 1430L102 -12Q92 -37 76 -29L6 6Q-6 12 4 33Z" />
<glyph unicode="0" glyph-name="zero" horiz-adv-x="1024" d="M522 -31Q427 -31 348 12T217 124T130 280T79 452T63 614Q63 962 192 1180T520 1399Q607 1399 681 1356T805 1242T892 1078T944 889T961 696Q961 350 843 160T522 -31ZM393 43T524 43T721 188Q755
262 769 389T784 741Q784 894 752 1025T656 1241T508 1325Q446 1325 402 1297T324 1202Q242 1044 242 649Q242 361 311 217Q393 43 524 43Z" />
<glyph unicode="1" glyph-name="one" horiz-adv-x="1024" d="M463 666V739V1024Q461 1083 451 1111T414 1139Q383 1139 332 1122L188 1075Q173 1071 168 1081L152 1118Q144 1131 164 1143L588 1386Q607 1399 616 1399Q631 1399 631 1370Q631 1369 630 1272T627
1029T625 766V680Q625 668 626 438T627 195Q628 150 631 130T650 95T691 77T770 74H844Q864 74 864 57V10Q864 -6 846 -6Q837 -6 689 -3T530 0T369 -3T213 -6Q197 -6 197 10V61Q197 74 225 74H319Q357 74 376 74T414 80T439 90T452 111T459 142T461 188Q463 215
463 666Z" />
<glyph unicode="2" glyph-name="two" horiz-adv-x="1024" d="M645 0H201Q160 0 98 -4Q38 -8 35 -8Q18 -8 12 4Q4 22 18 35T101 111T216 217T331 328T459 459Q589 598 652 720T711 971Q707 1105 633 1183T446 1260Q399 1259 358 1245T292 1213T241 1165T205 1118T179
1073Q174 1065 172 1061Q161 1042 147 1051L119 1063Q109 1069 119 1092Q247 1399 528 1399Q616 1399 697 1355T832 1224T887 1026Q887 895 829 774T633 498Q571 426 499 360T344 224T242 139H657Q686 139 712 145T757 159T795 184T826 211T853 245T874 277T895
311Q900 321 904 324T915 328T932 322Q958 308 948 293L815 -27Q812 -33 812 -39T810 -47T804 -48T784 -49Q771 -49 768 -46T758 -29Q749 -10 724 -5T645 0Z" />
<glyph unicode="3" glyph-name="three" horiz-adv-x="1024" d="M379 -31Q310 -31 255 -20T166 9T111 48T81 91T72 131Q72 170 92 194T139 219Q155 219 168 213T190 198T205 178T215 157T220 139T223 129Q260 45 414 45Q549 45 632 128T715 326Q715 474 634 567T420
692Q414 693 404 695Q388 698 386 701T383 723Q383 738 388 743T408 752Q514 771 594 851T674 1042Q674 1143 617 1207T465 1272Q276 1272 193 1049Q188 1036 183 1031T172 1028L135 1036Q127 1040 133 1067Q145 1123 174 1179T249 1285T365 1367T518 1399Q597
1399 658 1372T754 1303T804 1217T821 1130Q821 921 592 778Q706 749 798 648T891 420Q891 291 821 187T634 26T379 -31Z" />
<glyph unicode="4" glyph-name="four" horiz-adv-x="1024" d="M768 0H666Q651 0 646 4T641 23V383H70Q39 383 39 408Q39 419 59 449L725 1366Q750 1399 770 1399Q797 1399 797 1337V518H963Q987 518 987 502V403Q987 383 954 383H797V29Q797 11 792 6T768 0ZM643
508V1071Q643 1096 631 1099T604 1083L227 563Q189 508 242 508H643Z" />
<glyph unicode="5" glyph-name="five" horiz-adv-x="1024" d="M326 1210L289 881Q326 884 406 876T522 858Q672 818 755 718T838 477Q839 261 687 115T322 -31Q211 -31 133 4T55 84Q55 106 68 121T100 137Q136 137 203 96Q228 81 274 69T365 57Q488 57 586 149T684
373Q684 609 504 686Q378 742 238 731Q214 727 201 735Q187 740 190 758L264 1335Q266 1355 272 1361T297 1368H735Q770 1368 793 1381T827 1412T860 1470Q868 1486 885 1481Q912 1468 913 1465T913 1456L840 1251Q828 1226 813 1218T752 1210H326Z" />
<glyph unicode="6" glyph-name="six" horiz-adv-x="1024" d="M516 -31Q316 -31 221 82Q151 158 121 260T90 459Q90 876 401 1178Q542 1311 702 1376Q753 1399 778 1399T803 1378Q803 1355 784 1346Q732 1322 676 1284T558 1187T445 1059T354 899T299 711Q408 805
571 805Q644 805 706 780T810 717T879 629T921 533T934 444Q934 313 902 235T807 92Q749 29 680 -1T516 -31ZM528 35Q544 35 561 38T608 52T661 87T709 147T746 243T760 381Q760 523 693 620T512 717Q358 717 309 616Q264 531 264 393Q264 365 265 340T273 277T290
208T320 144T367 88T435 50T528 35Z" />
<glyph unicode="7" glyph-name="seven" horiz-adv-x="1024" d="M399 1368H975Q995 1368 995 1350Q995 1336 981 1313Q967 1289 927 1212T822 1004T721 782Q523 338 444 74Q414 -31 342 -31Q304 -31 283 -10T262 45Q262 57 266 73T274 104T288 139T303 172T319
207T334 236L842 1217H356Q336 1217 319 1216T287 1209T261 1200T238 1186T219 1170T200 1149T184 1128T166 1101T147 1073Q134 1055 109 1069Q95 1076 93 1081T96 1100L223 1430Q228 1439 233 1441T256 1444T280 1437T283 1407Q280 1384 302 1376T399 1368Z" />
<glyph unicode="8" glyph-name="eight" horiz-adv-x="1024" d="M510 -31Q410 -31 334 -4T217 67T155 160T135 262Q135 388 199 477T401 655Q339 690 292 725T205 803T143 897T121 1006Q121 1075 149 1143T230 1269T369 1363T559 1399Q699 1399 803 1319T907 1135Q907
1036 881 967T796 838T625 698Q761 634 837 547T913 330Q913 269 885 206T806 90T677 3T510 -31ZM522 39Q636 39 701 102T766 289Q766 324 758 355T737 411T700 461T655 503T598 543T537 579T469 616Q371 562 318 477T264 295Q264 231 287 181T349 100T431 55T522
39ZM526 1315Q419 1315 350 1240T281 1055Q281 1024 287 997T303 948T334 903T372 863T424 824T484 785T557 741Q641 795 703 881T772 1063Q776 1173 705 1244T526 1315Z" />
<glyph unicode="9" glyph-name="nine" horiz-adv-x="1024" d="M504 1399Q610 1399 680 1366T821 1255Q881 1187 906 1092T932 926Q932 706 852 507T598 156Q522 89 455 50T303 -16Q260 -31 240 -31Q209 -31 209 -2Q209 20 227 27Q283 49 343 87T466 183T580 312T671
474T723 664L721 668Q614 567 471 567Q389 567 323 591T215 655T145 749T104 859T92 977T140 1141T244 1292Q366 1399 504 1399ZM510 1333Q464 1333 420 1311T338 1247T279 1138T256 987Q256 845 330 750T510 655Q591 655 641 689T717 772Q748 838 748 975Q748
1047 737 1107T699 1220T625 1303T510 1333Z" />
<glyph unicode=":" glyph-name="colon" horiz-adv-x="520" d="M266 -25Q221 -25 180 3T139 96Q139 134 169 172T266 211Q313 211 347 177T381 88Q381 38 348 7T266 -25ZM266 643Q221 643 180 671T139 764Q139 802 169 840T266 879Q313 879 347 845T381 756Q381
706 348 675T266 643Z" />
<glyph unicode=";" glyph-name="semicolon" horiz-adv-x="520" d="M236 236Q298 236 356 182T414 39Q414 -22 393 -81T342 -183T276 -262T215 -317T174 -346Q171 -348 162 -353T146 -362T133 -365Q109 -365 109 -346Q109 -332 127 -315Q272 -182 272 -57Q272 -38
261 -20T238 4Q237 4 229 7T215 12T199 20T181 30T163 43T147 60T134 81T124 108T121 139Q121 179 152 207T236 236ZM236 643Q190 643 150 671T109 764Q109 786 118 810T159 856T236 879T316 845T350 756Q350 706 317 675T236 643Z" />
<glyph unicode="&lt;" glyph-name="less" horiz-adv-x="1024" d="M809 82L172 461V526L809 901V766L356 504V494L809 221V82Z" />
<glyph unicode="=" glyph-name="equal" horiz-adv-x="1024" d="M115 711H909V596H115V711ZM115 401H909V287H115V401Z" />
<glyph unicode="&gt;" glyph-name="greater" horiz-adv-x="1024" d="M215 901L852 522V457L215 82V217L668 479V489L215 762V901Z" />
<glyph unicode="?" glyph-name="question" horiz-adv-x="757" d="M295 594V375Q295 360 281 360H242Q227 360 227 375V762Q227 776 232 779T250 780Q284 774 385 774Q414 774 447 781T516 806T576 857T600 936Q600 1034 489 1120Q415 1181 367 1200T252 1219Q190
1219 148 1248T106 1319Q106 1330 112 1346T142 1381T205 1399Q267 1399 351 1350T509 1226T634 1052T686 864Q686 826 678 794T659 739T627 697T589 665T542 643T494 628T443 619T396 614T349 612T311 610Q295 610 295 594ZM279 -25Q233 -25 201 5T168 82Q168
131 199 163T283 195Q326 195 360 162T395 84Q395 42 363 9T279 -25Z" />
<glyph unicode="@" glyph-name="at" horiz-adv-x="1609" d="M545 583T545 518T594 453Q638 453 703 500T826 612T928 734T987 821Q1042 928 1042 981Q1042 1026 1019 1058T956 1090Q895 1090 821 1025T687 870T586 682ZM1120 133L1147 82Q1097 37 968 3T700 -31Q405
-31 234 128T63 543Q63 662 99 781T199 1002T351 1193T540 1346T755 1445T983 1481Q1246 1481 1387 1335T1528 934Q1528 854 1503 773T1428 617T1309 486T1146 394T946 360Q917 360 894 381T870 428Q870 489 942 672L934 676Q900 628 854 578T749 476T626 393T506
360Q464 360 433 391T401 479Q401 578 459 698T602 917T792 1082T983 1149Q1073 1149 1108 1077L1135 1116Q1144 1130 1155 1130H1233Q1253 1130 1243 1110Q1224 1077 1094 764Q1067 706 1038 616T1008 481Q1008 440 1067 440Q1112 440 1167 472T1276 565T1366
729T1403 956Q1403 1178 1288 1292T961 1407Q839 1407 724 1359T518 1227T358 1038T252 811T215 571Q215 409 283 289T467 109T731 49Q851 49 946 66T1120 133Z" />
<glyph unicode="A" glyph-name="A" horiz-adv-x="1521" d="M952 569H449Q431 524 372 359T305 164Q299 122 299 119Q299 74 369 74H465Q485 74 485 59V12Q485 -6 469 -6Q466 -6 387 -3T236 0Q170 0 121 -1T47 -4T12 -6Q-2 -6 -2 10V59Q-2 74 14 74H86Q131 74 157
95T205 168Q223 211 306 425T428 748Q434 765 525 1009T627 1284Q627 1285 629 1293T632 1303T634 1312T636 1323T636 1333T634 1344T629 1354Q614 1374 614 1380Q614 1394 633 1399Q673 1407 728 1442T803 1501Q822 1520 829 1520Q838 1520 842 1512T852 1485Q871
1423 970 1129T1090 766Q1124 649 1200 430T1298 166Q1345 74 1438 74H1505Q1522 74 1522 59V8Q1522 -6 1501 -6Q1499 -6 1427 -3T1255 0Q1155 0 1065 -3T967 -6Q950 -6 950 12V59Q950 74 969 74H1020Q1063 74 1077 91T1081 152Q1070 202 1024 349T952 569ZM475
643H928Q915 684 830 949T733 1247Q721 1276 717 1276Q705 1276 694 1245Q675 1194 580 935T475 643Z" />
<glyph unicode="B" glyph-name="B" horiz-adv-x="1351" d="M283 649V891Q283 1169 276 1253Q274 1298 267 1322T242 1359T204 1373T143 1376H80Q63 1376 63 1391V1442Q63 1456 80 1456Q82 1456 173 1453T352 1450Q384 1450 480 1453T612 1456Q878 1456 975 1401Q1133
1315 1133 1122Q1133 1063 1121 1017T1092 941T1038 880T972 833T883 784L889 780Q1221 671 1221 375Q1221 293 1176 202T1063 68Q999 28 907 11T672 -6Q594 -6 498 -3T365 0Q306 0 210 -3T102 -6Q74 -6 74 6V59Q74 74 92 74H190Q236 74 251 92T272 164Q283 238
283 649ZM463 741V614V332Q463 185 509 122T678 59Q746 59 803 76T907 130T981 232T1008 385Q1008 505 953 587T803 707Q714 741 528 741H463ZM463 963V811Q502 807 571 807Q755 807 829 860Q944 948 944 1106Q944 1249 844 1321Q742 1391 563 1391Q504 1391 496
1389Q467 1380 467 1352Q463 1270 463 963Z" />
<glyph unicode="C" glyph-name="C" horiz-adv-x="1527" d="M836 -31Q664 -31 541 18T317 158Q212 257 155 416T98 731Q98 1052 307 1274Q393 1364 527 1422T819 1481Q1039 1481 1233 1368Q1268 1347 1274 1368L1290 1427Q1293 1436 1297 1438T1317 1440Q1331 1440
1335 1434T1339 1407Q1339 1379 1360 1218T1391 1010Q1394 992 1382 989L1352 981Q1338 978 1331 997Q1267 1153 1171 1251Q1017 1409 815 1409Q709 1409 622 1373T476 1275T377 1133T320 964T303 784Q303 714 317 634T379 447T500 258Q595 151 683 119T893 86Q1055
86 1188 161T1399 346Q1407 360 1415 352L1442 332Q1453 325 1446 313Q1397 242 1338 184T1204 75T1035 -3T836 -31Z" />
<glyph unicode="D" glyph-name="D" horiz-adv-x="1665" d="M293 786V940Q293 990 290 1142T283 1319Q278 1354 259 1365T195 1376H82Q66 1376 66 1391V1446Q66 1456 80 1456Q86 1456 124 1455T231 1452T381 1450Q408 1450 535 1453T686 1456Q907 1456 1066 1418T1352
1272Q1579 1076 1579 750Q1579 578 1530 452T1376 211Q1335 166 1286 131T1193 73T1092 35T995 11T899 -1T815 -5T739 -6Q670 -6 537 -3T362 0Q284 0 219 -1T118 -4T74 -6Q59 -6 59 8V61Q59 74 76 74H213Q272 74 279 123Q283 153 288 403T293 786ZM481 887V741Q481
494 485 240Q485 180 520 125Q571 59 737 59Q889 59 1014 119T1219 281Q1286 364 1327 485T1368 741Q1368 860 1321 986T1200 1194Q1118 1285 985 1338T686 1391Q557 1391 522 1370Q486 1347 483 1274Q481 1188 481 887Z" />
<glyph unicode="E" glyph-name="E" horiz-adv-x="1413" d="M487 1384V784Q505 784 618 789T748 797Q792 804 810 821T842 887Q855 931 858 987Q858 1001 872 1001L924 999Q940 999 936 983Q930 948 930 750Q930 666 942 537Q942 523 930 520L885 514Q871 511 868
532Q864 561 846 629Q826 700 758 709Q662 719 487 719V592Q487 528 489 391T492 242Q495 104 608 82Q680 68 760 68Q875 68 940 74Q976 78 1029 96T1118 145Q1136 160 1200 242T1286 360Q1297 380 1311 373L1343 354Q1356 347 1348 326L1239 25Q1229 -6 1194 -6Q1191
-6 1173 -6T1113 -4T1016 -2Q979 -2 769 -1T375 0Q333 0 275 -1T201 -2Q115 -6 113 -6Q94 -6 94 8V63Q94 74 115 74H197Q266 74 282 89T299 164V649V850Q299 1236 293 1296Q287 1345 267 1360T188 1376H115Q98 1376 98 1391V1446Q98 1456 113 1456Q124 1456 205
1453T365 1450H455Q556 1450 758 1451T1063 1452Q1082 1452 1112 1454T1145 1456Q1158 1456 1161 1446Q1165 1430 1214 1277T1266 1116Q1269 1103 1260 1098L1229 1081Q1225 1078 1220 1080T1212 1087Q1206 1100 1123 1200T1008 1321Q931 1373 852 1376L487 1384Z"
/>
<glyph unicode="F" glyph-name="F" horiz-adv-x="1224" d="M287 770V913Q287 967 285 1140T283 1317Q283 1376 199 1376H80Q66 1376 66 1389V1444Q66 1456 80 1456Q82 1456 109 1455T164 1454Q258 1450 379 1450Q1139 1450 1165 1458Q1170 1431 1203 1282T1247
1094Q1250 1082 1243 1079L1206 1065Q1198 1062 1190 1079Q1160 1131 1059 1268Q1003 1344 915 1364Q882 1372 720 1377T477 1382Q477 1381 476 1138T475 819V717Q505 717 616 720T743 727Q779 733 799 752T834 817Q842 846 854 918Q858 932 868 932L909 930Q922
930 922 915Q918 881 918 682Q918 572 928 469Q928 456 913 453L874 444Q867 443 865 446T860 459Q856 495 838 559Q816 631 754 639Q657 651 475 651V575Q475 541 476 346T477 139Q477 97 491 86T557 74H657Q676 74 676 61V10Q676 -6 659 -6Q655 -6 621 -5T523
-2T381 0Q311 0 251 -1T157 -4T113 -6Q100 -6 100 8V63Q100 74 115 74H207Q247 74 262 83T279 119Q287 201 287 770Z" />
<glyph unicode="G" glyph-name="G" horiz-adv-x="1675" d="M1255 301V453Q1255 507 1237 527T1171 547H1085Q1071 547 1071 559V610Q1071 627 1083 627Q1084 627 1172 624T1343 621Q1408 621 1461 622T1545 625T1585 627Q1602 627 1602 612V563Q1602 547 1587
547H1507Q1476 547 1460 530T1444 469V199Q1444 183 1448 162T1452 133Q1452 114 1419 100Q1288 34 1157 2T860 -31Q763 -31 662 -8T458 69T287 203Q192 311 145 447T98 766Q98 909 158 1048T330 1286Q556 1481 905 1481Q1026 1481 1137 1445T1309 1362Q1336 1339
1356 1364L1386 1401Q1406 1419 1415 1419Q1434 1419 1434 1395L1440 1004Q1440 985 1430 985L1393 981Q1379 981 1376 997Q1338 1135 1253 1239Q1198 1307 1103 1357T881 1407Q765 1407 671 1371T489 1241Q405 1152 357 1029T309 770Q309 586 359 436T504 197Q654
51 864 51Q1077 51 1200 121Q1234 142 1244 179T1255 301Z" />
<glyph unicode="H" glyph-name="H" horiz-adv-x="1746" d="M274 719V807Q274 882 272 1060T270 1243Q270 1323 253 1349T180 1376H84Q72 1376 72 1393V1442Q72 1456 88 1456Q91 1456 179 1453T375 1450Q470 1450 556 1453T647 1456Q668 1456 668 1446V1393Q668
1383 665 1380T651 1376H547Q497 1376 482 1351T467 1260Q467 1256 465 1085T463 846V811Q463 795 487 795H1245Q1269 795 1277 800T1286 825V846Q1286 916 1283 1093T1280 1272Q1280 1327 1267 1351T1212 1376H1106Q1092 1376 1092 1391V1444Q1092 1456 1104 1456Q1114
1456 1203 1453T1374 1450T1542 1453T1636 1456Q1647 1456 1650 1453T1653 1440V1391Q1653 1382 1650 1379T1636 1376H1544Q1503 1376 1491 1352T1479 1268Q1479 1259 1477 1060T1475 817V748Q1475 527 1481 176Q1481 120 1499 97T1563 74H1653Q1671 74 1671 59V10Q1671
-6 1655 -6Q1649 -6 1567 -3T1397 0Q1293 0 1201 -3T1092 -6Q1079 -6 1079 8V59Q1079 74 1096 74H1225Q1259 74 1269 97T1280 168Q1286 456 1286 668V696Q1286 713 1278 717T1241 721H492Q475 721 469 717T463 700V657Q463 431 467 143Q468 106 484 90T532 74H633Q649
74 649 59V8Q649 -6 633 -6Q627 -6 545 -3T375 0Q271 0 184 -3T90 -6Q76 -6 76 8V61Q76 74 90 74H211Q235 74 248 89T265 124T268 172Q274 460 274 719Z" />
<glyph unicode="I" glyph-name="I" horiz-adv-x="759" d="M287 715V858Q287 899 284 1092T279 1307Q275 1345 254 1360T176 1376H57Q41 1376 41 1389V1444Q41 1456 55 1456Q61 1456 102 1455T217 1452T375 1450Q455 1450 517 1451T611 1454T651 1456Q666 1456
666 1442V1391Q666 1376 649 1376H553Q481 1376 481 1319Q481 1309 478 1072T475 821V664Q475 654 478 407T481 147Q481 102 503 88T578 74H662Q678 74 678 59V6Q678 -6 659 -6Q653 -6 618 -5T518 -2T375 0Q289 0 219 -1T111 -4T70 -6Q53 -6 53 6V61Q53 74 70 74H184Q222
74 246 85T276 133Q279 154 283 383T287 715Z" />
<glyph unicode="J" glyph-name="J" horiz-adv-x="679" d="M258 680V823Q258 1219 252 1307Q250 1343 229 1359T152 1376H61Q47 1376 47 1386V1442Q47 1456 61 1456Q66 1456 100 1455T201 1452T354 1450Q430 1450 492 1451T588 1454T631 1456Q647 1456 647 1444V1393Q647
1376 631 1376H528Q487 1376 471 1363T453 1317Q446 1201 446 774V680Q446 566 444 450T440 260T438 172Q438 62 422 -17T362 -170Q294 -289 193 -369T-18 -449Q-41 -449 -71 -439T-129 -400T-158 -330Q-158 -284 -126 -258T-43 -231Q10 -231 55 -261T117 -340Q152
-329 182 -295T229 -211Q247 -160 255 -25T263 228T261 504T258 680Z" />
<glyph unicode="K" glyph-name="K" horiz-adv-x="1458" d="M274 756V874Q274 895 271 1108T268 1327Q268 1376 207 1376H135Q119 1376 119 1391V1444Q119 1456 135 1456Q142 1456 170 1455T253 1452T375 1450Q435 1450 486 1451T568 1454T606 1456Q623 1456 623
1444V1391Q623 1376 608 1376H522Q491 1376 478 1363T465 1313Q465 1306 462 1114T459 862V760H496Q539 760 580 788Q609 809 802 1051T1022 1331Q1035 1353 1030 1366T1004 1380H975Q965 1380 965 1395V1442Q965 1456 977 1456Q980 1456 1052 1453T1180 1450Q1214
1450 1270 1453T1335 1456Q1350 1456 1350 1446V1391Q1350 1376 1333 1376H1290Q1230 1376 1178 1337Q1126 1299 952 1102T700 805L1249 125Q1291 74 1393 74H1464Q1479 74 1479 59V8Q1479 -6 1462 -6Q1457 -6 1426 -5T1336 -2T1210 0Q1135 0 1073 -1T975 -4T932
-6Q920 -6 920 6V59Q920 72 932 72H963Q989 72 997 91T995 127Q982 157 795 404T588 668Q550 698 498 698H459V551Q459 203 465 119Q467 99 479 87T512 74H602Q618 74 618 61V8Q618 -6 606 -6Q599 -6 571 -5T491 -2T375 0Q304 0 247 -1T161 -4T129 -6Q115 -6 115
8V61Q115 74 129 74H213Q261 74 268 111Q274 165 274 756Z" />
<glyph unicode="L" glyph-name="L" horiz-adv-x="1355" d="M287 803V918Q287 1192 281 1303Q277 1345 263 1360T205 1376H109Q94 1376 94 1397V1442Q94 1450 97 1453T109 1456Q114 1456 146 1455T239 1452T375 1450Q462 1450 533 1451T639 1454T678 1456Q689 1456
692 1452T696 1440V1393Q696 1376 676 1376H553Q507 1376 494 1360T481 1296Q481 1288 480 1198T477 994T475 817V641Q475 164 481 80Q521 76 731 76T995 80Q1037 86 1083 129T1166 230T1229 338T1268 424Q1274 437 1284 432L1317 420Q1323 416 1321 401Q1317 391
1274 216T1221 -6Q1167 -2 852 -2Q670 0 358 0Q314 0 254 -1T176 -2Q160 -3 142 -4T113 -5T96 -6Q86 -6 83 -3T80 8V59Q80 68 82 71T94 74H193Q281 74 281 129Q281 138 284 434T287 803Z" />
<glyph unicode="M" glyph-name="M" horiz-adv-x="2009" d="M543 1421L997 328Q1014 346 1129 607T1247 874Q1269 916 1378 1157T1491 1425Q1495 1450 1538 1450Q1658 1450 1743 1451T1864 1454T1903 1456Q1915 1456 1915 1442V1395Q1915 1384 1912 1380T1898 1376H1808Q1766
1376 1754 1355T1741 1292Q1741 1272 1738 1077T1735 803V659Q1735 600 1738 399T1741 184Q1741 125 1756 100T1810 74H1931Q1946 74 1946 59V12Q1946 2 1943 -2T1927 -6Q1923 -6 1897 -5T1805 -2T1640 0Q1557 0 1490 -1T1388 -4T1346 -6Q1335 -6 1332 -2T1329
12V59Q1329 68 1332 71T1346 74H1485Q1513 74 1526 89T1542 147Q1546 197 1546 680V811Q1546 1311 1540 1329H1536Q1524 1313 1370 976T1214 637Q1209 626 1149 490T1029 215T967 72Q944 23 926 23Q909 23 895 59Q652 666 616 745Q557 894 469 1100T362 1323Q357
1305 354 1068T350 752Q350 271 354 223Q362 134 381 104T449 74H551Q565 74 565 59V8Q565 -6 547 -6Q542 -6 514 -5T430 -2T299 0Q222 0 161 -1T69 -4T35 -6Q22 -6 19 -3T16 12V61Q16 74 29 74H137Q190 74 212 104T246 197Q261 289 268 542T276 903Q276 1241 274
1300Q273 1318 273 1323T270 1340T263 1356T249 1366T226 1374T190 1376H66Q51 1376 51 1391V1444Q51 1456 66 1456Q70 1456 97 1455T181 1452T315 1450Q373 1450 429 1453T489 1456Q512 1456 523 1449T543 1421Z" />
<glyph unicode="N" glyph-name="N" horiz-adv-x="1628" d="M276 836V1184Q276 1272 238 1322T141 1374L57 1376Q45 1376 45 1391V1444Q45 1456 57 1456Q60 1456 78 1455T115 1454Q175 1450 260 1450Q301 1450 346 1452T397 1454Q433 1454 457 1427Q462 1421 669
1153T887 870L1081 631Q1275 392 1305 352H1313V596Q1313 828 1307 981Q1305 1058 1298 1165T1282 1296Q1257 1376 1169 1376H1104Q1092 1376 1092 1391V1444Q1092 1456 1104 1456Q1106 1456 1178 1453T1329 1450Q1402 1450 1464 1453T1528 1456Q1544 1456 1544
1442V1391Q1544 1376 1532 1376H1477Q1436 1376 1418 1350T1397 1264Q1389 1126 1389 791V25Q1389 -25 1378 -25Q1354 -25 1329 8Q1328 11 1079 324Q781 695 774 702Q766 709 702 789T565 958T428 1129T362 1212H350V758Q350 632 358 434T371 193Q378 128 392 101T446
74H508Q518 74 521 70T524 55V10Q524 1 521 -2T508 -6Q502 -6 422 -3T309 0Q285 0 199 -3T104 -6Q94 -6 94 8V61Q94 74 106 74H176Q222 74 241 99T268 199Q276 277 276 836Z" />
<glyph unicode="O" glyph-name="O" horiz-adv-x="1681" d="M840 -31Q751 -31 631 1T399 102Q278 176 188 339T98 711Q98 990 289 1221Q354 1300 426 1353T571 1433T708 1470T844 1481Q1109 1481 1303 1319Q1428 1211 1505 1058T1583 707Q1583 464 1430 258Q1212
-31 840 -31ZM856 47Q949 47 1027 73T1158 142T1252 243T1317 360T1356 483T1377 597T1382 690Q1382 820 1347 936T1255 1135T1127 1280T980 1372T836 1403Q835 1403 817 1404T785 1405T745 1402T694 1391T639 1370T577 1335T512 1282Q414 1188 361 1049T307 776Q307
665 328 567T385 396T468 264T567 165T671 98T770 59T856 47Z" />
<glyph unicode="P" glyph-name="P" horiz-adv-x="1243" d="M461 649V543Q461 197 465 139Q468 105 484 90T532 74H664Q680 74 680 59V10Q680 2 677 -2T662 -6Q654 -6 622 -5T526 -2T377 0Q298 0 233 -1T134 -4T94 -6Q78 -6 78 8V59Q78 74 90 74H178Q231 74 247
86T268 139Q269 150 271 241T274 470T276 717V952Q276 1291 272 1331Q269 1360 253 1368T193 1376H76Q63 1376 63 1393V1442Q63 1456 76 1456Q80 1456 113 1455T214 1452T367 1450Q381 1450 467 1453T592 1456Q767 1456 864 1435T1049 1354Q1121 1305 1162 1225T1204
1057Q1204 863 1066 751T684 639Q542 639 461 649ZM461 1376V723Q522 705 649 705Q738 705 816 745T938 844Q991 913 991 1051Q991 1127 964 1188T896 1287T803 1348T706 1382T621 1391Q502 1391 461 1376Z" />
<glyph unicode="Q" glyph-name="Q" horiz-adv-x="1669" d="M823 1481Q996 1484 1135 1426T1374 1262Q1476 1155 1525 1022T1571 745Q1574 587 1516 445T1360 207Q1274 121 1191 71T1004 -14V-23Q1237 -109 1528 -172Q1651 -200 1752 -219T1914 -248T2026 -263T2097
-268T2140 -267T2165 -266Q2233 -266 2292 -221Q2303 -210 2310 -219L2324 -240Q2333 -250 2318 -260Q2158 -426 2044 -426Q1871 -426 1497 -330Q1341 -291 1131 -213T711 -37Q708 -36 680 -28T627 -12T560 15T479 59T391 122T297 209Q207 300 153 437T98 750Q98
898 160 1040T334 1284Q443 1382 585 1433T823 1481ZM842 35Q941 35 1024 70T1162 164T1258 292T1322 437T1355 573T1366 682Q1366 865 1319 1010T1190 1233Q1093 1325 1007 1366T811 1407Q616 1407 483 1274Q389 1180 347 1045T305 766Q305 578 370 430T524 197Q695
35 842 35Z" />
<glyph unicode="R" glyph-name="R" horiz-adv-x="1427" d="M285 733V932Q285 1214 283 1274Q280 1376 205 1376H123Q111 1376 111 1391V1442Q111 1456 123 1456Q126 1456 155 1455T242 1452T377 1450Q444 1450 577 1453T719 1456Q843 1456 942 1422T1102 1331Q1151
1283 1179 1220T1208 1098Q1208 911 1121 822T829 688V684Q880 666 924 606Q941 588 1018 478T1110 344Q1121 322 1192 225T1290 109Q1339 74 1438 74Q1454 74 1454 57V12Q1454 -6 1438 -6Q1433 -6 1411 -5T1354 -2T1278 0Q1205 0 1112 -6Q1092 12 1026 111Q1017
125 955 233T889 346Q881 360 828 439T758 537Q733 567 717 583T673 618T613 646T537 655Q498 655 469 649V535Q469 214 473 154Q476 119 489 97T524 74H653Q670 74 670 57V12Q670 1 666 -2T647 -6Q643 -6 615 -5T526 -2T379 0Q297 0 239 -1T154 -4T123 -6Q111
-6 109 -3T106 10V57Q106 67 107 70T117 74H201Q281 74 281 143Q285 346 285 733ZM469 1309V729Q510 721 561 721Q638 721 703 735T812 773T892 828T948 892T982 957T1001 1016T1006 1063Q1006 1132 978 1195T903 1296Q841 1346 764 1368T563 1391Q520 1391 494
1374Q469 1357 469 1309Z" />
<glyph unicode="S" glyph-name="S" horiz-adv-x="1122" d="M598 -31Q409 -31 272 76Q240 100 225 100Q213 100 193 66Q179 41 156 41Q131 41 137 74Q141 96 148 174T162 338T172 444Q173 453 176 455T186 457L217 455Q229 455 229 438Q230 397 234 370T255 296T303
201Q349 129 426 89T590 49Q638 49 685 64T774 109T842 191T868 309Q868 370 850 420T805 505T734 569T650 617T553 655Q339 732 254 821Q152 923 152 1120Q152 1192 189 1262T279 1382Q382 1481 565 1481Q695 1481 807 1430Q831 1415 846 1432L872 1456Q888 1468
899 1468Q915 1468 915 1434Q915 1392 929 1256T944 1108Q944 1094 934 1092L909 1085Q900 1082 897 1092Q861 1223 770 1319Q688 1407 547 1407Q482 1407 432 1385T354 1326T313 1250T299 1167Q299 1054 362 989Q434 918 596 866Q669 843 700 832T783 799T866
753T926 696Q1016 589 1016 418Q1016 295 969 195T826 32T598 -31Z" />
<glyph unicode="T" glyph-name="T" horiz-adv-x="1437" d="M608 850V1376H557Q313 1376 233 1352Q201 1342 172 1315T117 1244T81 1178T51 1114Q46 1101 31 1104L-6 1114Q-18 1118 -14 1130Q79 1475 82 1491Q87 1524 102 1524Q116 1524 127 1516L154 1497Q181
1477 203 1471T270 1462Q298 1461 367 1458T504 1452T657 1450H756Q856 1450 927 1452T1077 1458T1167 1462Q1230 1465 1274 1491L1313 1516Q1326 1524 1337 1524Q1345 1524 1349 1518T1356 1491Q1357 1487 1365 1436T1381 1331T1399 1215T1415 1122Q1418 1109
1403 1106L1370 1098Q1364 1097 1362 1099T1354 1112L1344 1134Q1335 1157 1329 1169T1311 1207T1289 1250T1265 1288T1237 1321T1208 1341Q1139 1376 854 1376H797V793Q797 190 799 156Q802 115 817 95T868 74H997Q1010 74 1014 70T1018 53V10Q1018 1 1014 -2T997
-6Q994 -6 963 -5T866 -2T711 0Q624 0 554 -1T445 -4T399 -6Q381 -6 381 14V53Q381 74 395 74H535Q564 74 582 88T602 123Q608 182 608 850Z" />
<glyph unicode="U" glyph-name="U" horiz-adv-x="1527" d="M758 -31Q585 -31 481 12Q379 53 321 120T238 287Q205 408 205 784V1272Q205 1328 189 1352T127 1376H31Q21 1376 19 1379T16 1395V1440Q16 1450 19 1453T35 1456Q39 1456 77 1455T180 1452T315 1450T449
1451T552 1454T596 1456Q614 1456 614 1444V1391Q614 1382 611 1379T598 1376H496Q453 1376 427 1352T397 1292Q393 1256 393 1026V891Q393 782 403 457Q408 286 469 197Q522 119 609 84T795 49Q884 49 966 78T1102 162Q1208 276 1208 522V961Q1208 1201 1198 1286Q1193
1327 1169 1351T1106 1376H1016Q1001 1376 1001 1393V1442Q1001 1456 1016 1456Q1021 1456 1056 1455T1149 1452T1268 1450Q1330 1450 1381 1451T1461 1454T1493 1456Q1513 1456 1513 1442V1397Q1513 1376 1501 1376H1417Q1405 1376 1395 1374T1376 1368T1362 1361T1351
1350T1343 1339T1338 1327T1334 1315T1331 1304T1329 1294Q1325 1274 1325 954Q1325 902 1322 720T1315 487Q1306 355 1266 259T1143 92Q1010 -31 758 -31Z" />
<glyph unicode="V" glyph-name="V" horiz-adv-x="1445" d="M57 1391V1442Q57 1450 60 1453T72 1456Q76 1456 106 1455T192 1452T319 1450Q395 1450 461 1451T563 1454T602 1456Q623 1456 623 1442V1395Q623 1376 606 1376H508Q422 1376 422 1323Q422 1292 430
1253Q445 1164 555 821Q663 484 745 266H750Q778 328 861 546T969 831Q980 862 1032 1017T1098 1212Q1126 1303 1126 1329Q1126 1376 1061 1376H1008Q997 1376 997 1395V1442Q997 1456 1010 1456Q1014 1456 1048 1455T1138 1452T1251 1450Q1317 1450 1367 1451T1441
1454T1470 1456Q1479 1456 1482 1453T1485 1442V1391Q1485 1376 1470 1376H1415Q1368 1376 1336 1356T1270 1296Q1255 1278 1228 1224T1167 1088T1108 948T1051 808T1018 725Q1000 676 864 339T719 -14Q706 -41 690 -41Q684 -41 680 -38T670 -27T663 -14T655 6L397
735L377 805Q214 1288 205 1309Q189 1346 171 1361T121 1376H68Q57 1376 57 1391Z" />
<glyph unicode="W" glyph-name="W" horiz-adv-x="2140" d="M358 1303L688 266H692Q694 276 774 510T932 984T1014 1262Q1015 1274 1006 1296T983 1337Q955 1376 901 1376H850Q838 1376 838 1393V1442Q838 1456 852 1456Q856 1456 886 1455T973 1452T1102 1450Q1178
1450 1240 1451T1335 1454T1372 1456Q1386 1456 1386 1442V1391Q1386 1376 1372 1376H1290Q1254 1376 1239 1350T1233 1294L1552 266H1556Q1592 368 1653 549T1795 996T1876 1313Q1876 1376 1804 1376H1749Q1735 1376 1735 1395V1442Q1735 1456 1751 1456Q1757
1456 1786 1455T1864 1452T1970 1450Q2021 1450 2064 1451T2132 1454T2161 1456Q2175 1456 2175 1442V1391Q2170 1377 2161 1376H2111Q2060 1376 2030 1321Q2023 1309 1911 1004T1680 376T1544 12Q1543 10 1539 1T1534 -11T1528 -22T1520 -32T1512 -38T1501 -41Q1484
-41 1474 -30T1456 4L1077 1128H1073Q1056 1075 867 544T670 -2Q650 -41 629 -41Q603 -41 592 -8L135 1303Q121 1344 100 1360T47 1376H-23Q-35 1376 -35 1393V1442Q-35 1450 -32 1453T-18 1456Q-15 1456 11 1455T88 1452T201 1450Q266 1450 323 1451T414 1454T453
1456Q469 1456 469 1444V1393Q469 1376 453 1376H418Q339 1376 358 1303Z" />
<glyph unicode="X" glyph-name="X" horiz-adv-x="1427" d="M469 61V12Q469 -6 453 -6Q448 -6 415 -5T321 -2T186 0Q133 0 83 -1T1 -4T-35 -6Q-47 -6 -47 12V59Q-47 74 -35 74H45Q93 74 162 133Q217 182 309 301T496 553T627 729Q240 1304 199 1346Q167 1376 106
1376H16Q6 1376 6 1393V1440Q6 1456 16 1456Q20 1456 57 1455T162 1452T307 1450Q398 1450 470 1451T578 1454T616 1456Q633 1456 633 1442V1395Q633 1384 630 1380T614 1376H543Q500 1376 482 1361T465 1325T483 1280Q486 1276 524 1213T600 1085T680 954T739
864Q785 921 909 1092T1049 1292Q1067 1323 1057 1349T1008 1376H965Q952 1376 952 1395V1442Q952 1450 955 1453T967 1456Q974 1456 1006 1455T1088 1452T1190 1450Q1240 1450 1286 1451T1362 1454T1397 1456Q1413 1456 1413 1442V1395Q1413 1384 1411 1380T1401
1376H1315Q1268 1376 1229 1350Q1203 1332 1032 1118T786 801Q794 790 903 622T1116 295T1229 129Q1289 74 1364 74H1432Q1448 74 1448 59V10Q1448 -6 1432 -6Q1429 -6 1399 -5T1308 -2T1171 0Q1099 0 1031 -1T924 -4T883 -6Q866 -6 866 8V59Q866 74 879 74H958Q990
74 1003 83T1008 113Q998 136 850 378T670 664Q580 536 462 363T334 166Q316 123 326 99T373 74H453Q469 74 469 61Z" />
<glyph unicode="Y" glyph-name="Y" horiz-adv-x="1361" d="M756 649V381Q756 237 764 145Q768 100 788 87T854 74H934Q944 74 946 71T948 59V12Q948 2 946 -2T934 -6Q928 -6 894 -5T796 -2T657 0Q576 0 515 -1T423 -4T387 -6Q375 -6 375 10V59Q375 74 389 74H489Q558
74 561 125Q567 212 567 506V625Q541 678 361 978T141 1327Q122 1349 92 1362T35 1376H-16Q-31 1376 -31 1391V1444Q-31 1456 -16 1456Q-11 1456 23 1455T112 1452T223 1450Q316 1450 387 1451T491 1454T528 1456Q543 1456 543 1446V1395Q543 1376 528 1376H461Q416
1376 405 1362T399 1309Q402 1294 466 1176T615 904T719 715Q739 746 840 899T1013 1166T1090 1296Q1093 1315 1095 1332T1080 1363T1022 1376H967Q952 1376 952 1395V1444Q952 1456 967 1456Q972 1456 1004 1455T1092 1452T1208 1450Q1261 1450 1302 1451T1366
1454T1393 1456Q1409 1456 1409 1444V1395Q1409 1384 1406 1380T1393 1376H1341Q1289 1376 1241 1331Q1200 1292 756 649Z" />
<glyph unicode="Z" glyph-name="Z" horiz-adv-x="1437" d="M559 0H127Q88 0 88 16Q88 43 100 55Q170 136 611 745T1069 1384H514Q474 1384 432 1352Q400 1326 306 1211T182 1047Q175 1037 164 1044L137 1057Q129 1062 133 1075L262 1444Q269 1466 287 1466Q294
1466 328 1462Q424 1450 883 1450Q915 1450 952 1451T1034 1453T1104 1456Q1215 1462 1321 1462Q1345 1462 1349 1448T1335 1413Q1305 1378 845 749T356 74H1077Q1126 104 1224 213T1364 377Q1373 386 1382 381L1411 365Q1421 357 1415 346Q1394 306 1338 169T1270
-8Q1264 -31 1243 -31Q1240 -31 1234 -30T1215 -27T1192 -23Q1114 -13 920 -7T559 0Z" />
<glyph unicode="[" glyph-name="bracketleft" horiz-adv-x="724" d="M207 1530H627Q639 1530 639 1518V1468Q639 1452 623 1452H346Q335 1452 331 1448T326 1430V-248Q326 -265 328 -270T340 -276H643Q659 -276 659 -295V-338Q659 -354 641 -354H209Q186 -354
186 -332V1511Q186 1530 207 1530Z" />
<glyph unicode="\" glyph-name="backslash" horiz-adv-x="716" d="M709 0L633 -31Q626 -33 621 -28T608 -6L4 1432Q-3 1448 8 1452L86 1485Q99 1490 106 1475L713 25Q720 4 709 0Z" />
<glyph unicode="]" glyph-name="bracketright" horiz-adv-x="724" d="M516 -354H84Q66 -354 66 -338V-295Q66 -288 66 -285T70 -279T82 -276H387Q399 -276 399 -252V1430Q399 1452 381 1452H102Q86 1452 86 1468V1518Q86 1530 98 1530H518Q539 1530 539 1511V-332Q539
-354 516 -354Z" />
<glyph unicode="^" glyph-name="asciicircum" horiz-adv-x="1024" d="M47 532L479 1399H545L979 532H846L510 1204H500L174 532H47Z" />
<glyph unicode="_" glyph-name="underscore" horiz-adv-x="1024" d="M0 -256V-154H1024V-256H0Z" />
<glyph unicode="`" glyph-name="grave" horiz-adv-x="684" d="M410 1018L385 995Q379 989 373 995L102 1188Q66 1214 63 1246T80 1301T131 1323Q173 1323 215 1272L412 1028Q416 1021 410 1018Z" />
<glyph unicode="a" glyph-name="a" horiz-adv-x="874" d="M688 365V244Q688 90 750 90Q773 90 793 99T821 121Q833 136 842 129L862 113Q874 99 860 76Q808 -25 700 -25Q646 -25 608 12T555 113H551Q484 32 348 -12Q309 -25 227 -25Q181 -25 143 16T104 145Q104
222 149 282T309 393Q505 480 541 512V643Q541 645 539 665T536 692T531 714T524 740T512 758Q472 803 389 803Q356 803 317 791T256 760Q243 748 241 734T242 698T246 666Q246 608 222 579T137 549Q88 549 88 614Q88 663 127 716T229 807Q350 879 479 879Q524
879 558 870T608 851T643 823Q672 794 680 762T688 678V365ZM539 199V451Q522 438 483 419T410 381T340 336T285 271T264 184Q264 130 293 101T371 72Q418 72 478 115T539 199Z" />
<glyph unicode="b" glyph-name="b" horiz-adv-x="1032" d="M147 348V1104Q147 1173 138 1209T110 1263T51 1294L31 1300Q4 1308 4 1317V1333Q4 1341 20 1350Q142 1403 238 1462Q262 1481 281 1481T297 1446Q295 1430 295 1014V776Q343 823 421 851T578 879Q647
879 712 851T832 770T919 632T952 440Q952 322 895 215T739 41T526 -25Q373 -25 285 29L203 -16Q192 -26 176 -23L152 -16Q140 -13 143 0Q147 29 147 348ZM295 707V440Q295 312 301 252T326 143Q342 105 399 73T520 41Q570 41 615 59T703 115T770 225T795 393Q795
495 762 581T657 724T489 780Q365 780 295 707Z" />
<glyph unicode="c" glyph-name="c" horiz-adv-x="841" d="M467 813Q371 813 298 729T225 496Q225 416 255 330T330 184Q409 80 553 80Q629 80 677 99T778 168Q786 176 795 168L815 147Q827 135 815 121Q765 64 674 20T485 -25Q282 -25 168 119Q115 189 96 254T76
397Q76 519 128 628T282 808T514 879Q589 879 647 860T734 812T778 758T793 713Q792 679 771 660T717 641Q650 641 604 723Q573 780 543 796T467 813Z" />
<glyph unicode="d" glyph-name="d" horiz-adv-x="1067" d="M743 848V1247Q743 1308 720 1331T614 1368Q600 1370 600 1382V1417Q600 1429 616 1432Q652 1439 736 1454T842 1475Q847 1476 863 1478T889 1481Q902 1481 899 1444Q891 1307 891 784V332Q891 171 911
145Q924 131 950 122T1001 111Q1037 109 1042 96L1047 80Q1050 63 1032 57L801 -20Q781 -28 774 -4L748 86Q699 37 613 6T446 -25Q408 -25 391 -24T339 -15T271 14T205 70Q130 143 103 217T76 401Q76 606 219 750Q339 879 524 879Q638 879 743 848ZM743 246V598Q743
666 725 698Q700 746 647 777T510 809Q394 809 324 735Q229 633 229 463Q229 380 256 304T324 176T414 94T508 63Q589 63 652 98T731 176Q743 213 743 246Z" />
<glyph unicode="e" glyph-name="e" horiz-adv-x="872" d="M741 545H236Q229 518 229 446Q229 296 313 195T520 94Q607 94 672 135T768 233Q775 248 786 244L813 229Q825 225 813 199Q801 172 783 144T735 85T671 30T588 -9T487 -25Q266 -25 166 121Q113 197 95
265T76 444Q76 642 205 770Q266 832 338 855T498 879Q565 879 619 855T706 796T760 718T790 640T799 578Q799 558 785 552T741 545ZM244 606H561Q616 606 616 635Q616 652 613 672T599 719T572 767T527 802T459 817Q386 817 329 766T244 606Z" />
<glyph unicode="f" glyph-name="f" horiz-adv-x="634" d="M219 524V756H78Q62 756 68 778L76 840Q78 854 100 854H219V893Q219 1165 356 1319Q504 1481 692 1481Q770 1481 824 1451T879 1366Q879 1332 850 1305T793 1278Q760 1278 735 1290Q714 1301 686 1337Q648
1384 592 1384Q494 1384 438 1313Q413 1281 397 1237T375 1131T368 1031T367 920Q367 903 367 895V854H614Q634 854 629 834L618 766Q616 756 592 756H367V573Q367 143 369 121Q372 92 382 80T422 68H539Q552 68 556 64T561 51V18Q561 -6 547 -6Q546 -6 517 -5T429
-2T301 0Q251 0 197 -1T108 -4T68 -6Q51 -6 51 8V53Q51 68 72 68H170Q198 68 207 84T219 139V524Z" />
<glyph unicode="g" glyph-name="g" horiz-adv-x="993" d="M446 -557Q249 -557 133 -492Q29 -427 29 -326Q29 -247 93 -183T244 -80V-72Q181 -58 144 -17T106 72Q106 138 164 189T291 266V270Q216 303 158 381T100 582Q100 633 123 684T188 780T299 851T451 879Q605
879 709 760Q822 840 901 840Q949 840 974 814T997 754Q997 724 975 701T918 678Q879 678 846 709Q819 727 803 727Q764 727 737 715Q768 640 768 559Q768 428 692 338Q654 296 581 266T455 236Q389 236 350 246Q309 229 276 199T242 131Q242 116 246 104T260 84T281
70T311 62T344 58T386 56T430 58T481 61Q609 68 691 52T834 -12Q929 -83 934 -209Q934 -284 903 -345T797 -461Q746 -498 655 -527T446 -557ZM434 293Q484 293 521 321T578 395T608 490T618 592Q618 715 563 776Q544 796 517 808T465 821Q377 821 319 764Q246 685
246 522Q246 412 311 344Q365 293 434 293ZM518 -492Q551 -492 597 -481T695 -446T779 -380T809 -281Q809 -184 734 -128T512 -82L315 -96Q257 -112 205 -165T152 -293Q152 -330 175 -371T231 -434Q280 -468 342 -480T518 -492Z" />
<glyph unicode="h" glyph-name="h" horiz-adv-x="1103" d="M201 498V1116Q201 1206 181 1237T102 1288L68 1300Q53 1306 53 1313V1331Q53 1338 70 1348Q75 1350 78 1352L291 1464Q321 1481 338 1481Q360 1481 354 1430Q348 1378 348 877V745H358Q410 807 489 843T639
879Q756 879 842 797Q874 767 893 734T919 659T928 590T930 509Q930 500 930 496V379Q930 312 932 210T934 98Q934 68 1010 68H1044Q1067 68 1067 49V18Q1067 -6 1051 -6Q1048 -6 1022 -5T951 -2T854 0Q810 0 767 -1T695 -4T662 -6Q651 -6 647 -1T643 16V51Q643
68 657 68H705Q780 68 782 106V309V475Q782 573 769 631T715 727Q655 784 580 784Q463 784 389 698Q348 648 348 598V152Q348 101 356 85T393 68H455Q477 68 477 51V16Q477 -6 461 -6Q456 -6 427 -5T352 -2T266 0Q221 0 176 -1T102 -4T68 -6Q53 -6 53 14V51Q53
62 59 65T84 68H127Q188 68 195 100Q201 139 201 498Z" />
<glyph unicode="i" glyph-name="i" horiz-adv-x="546" d="M209 295V596Q209 654 188 680T94 719Q76 722 76 733V752Q76 760 90 766Q217 814 311 866Q339 879 350 879Q364 879 360 854Q356 819 356 520V297Q356 143 358 121Q361 91 368 80T391 68H485Q506 68 506
49V14Q506 -6 487 -6Q482 -6 451 -5T374 -2T291 0Q239 0 189 -1T108 -4T70 -6Q53 -6 53 10V51Q53 68 74 68H174Q192 68 199 76T207 109Q209 170 209 295ZM229 1114Q191 1114 154 1144T117 1221Q117 1263 150 1295T242 1327Q291 1327 319 1296T348 1227Q348 1183
317 1149T229 1114Z" />
<glyph unicode="j" glyph-name="j" horiz-adv-x="503" d="M199 150V555Q199 622 181 648T98 698L78 707Q66 712 66 721V739Q66 746 82 756Q187 788 303 864Q321 879 342 879Q350 879 353 869T354 844Q346 806 346 496V240Q346 -71 317 -213Q285 -381 189 -469T-33
-557Q-81 -557 -116 -531T-152 -461Q-152 -433 -130 -404T-78 -375Q-18 -375 39 -438Q66 -469 86 -469Q126 -469 153 -424T188 -289Q199 -144 199 150ZM233 1114Q188 1114 150 1146T111 1239Q111 1278 149 1319T248 1360Q289 1360 325 1327T362 1233Q362 1188 326
1151T233 1114Z" />
<glyph unicode="k" glyph-name="k" horiz-adv-x="1015" d="M195 498V1176Q195 1245 177 1273T88 1321Q59 1329 59 1335V1354Q59 1363 86 1374L295 1464Q329 1481 340 1481Q355 1481 352 1446Q342 1348 342 801V477Q413 477 440 500Q467 518 555 611T657 727Q677
762 657 774Q641 786 604 786Q588 786 588 805V844Q588 860 602 860Q604 860 630 859T702 856T793 854Q837 854 875 855T934 858T958 860Q971 860 971 840V803Q971 793 968 790T954 786H940Q909 786 870 773T799 739Q779 728 687 645T528 498Q913 113 948 96Q1006
68 1055 68Q1071 68 1071 49V12Q1071 -6 1053 -6Q1048 -6 1025 -5T964 -2T883 0Q830 0 778 -1T695 -4T659 -6Q645 -6 645 14V47Q645 63 666 63H680Q693 63 700 73T702 96Q698 108 579 235T430 391Q403 414 342 414V324Q342 182 344 111Q346 88 355 78T385 68H444Q463
68 463 51V16Q463 -6 446 -6Q444 -6 419 -5T352 -2T264 0Q216 0 171 -1T98 -4T68 -6Q57 -6 57 14V49Q57 68 78 68H154Q190 68 190 117Q195 267 195 498Z" />
<glyph unicode="l" glyph-name="l" horiz-adv-x="524" d="M344 793V610Q344 195 346 131Q348 100 358 84T399 68H492Q514 68 514 49V14Q514 -6 502 -6Q499 -6 467 -5T380 -2T270 0Q212 0 159 -1T75 -4T39 -6Q25 -6 25 14V49Q25 60 30 64T51 68H150Q192 68 195
119Q197 182 197 653V782Q197 1093 190 1167Q187 1218 163 1246T88 1290L47 1305Q35 1310 35 1315V1331Q35 1338 53 1346Q63 1351 96 1365T148 1388T194 1409T247 1436T293 1464Q317 1481 336 1481T352 1444Q344 992 344 793Z" />
<glyph unicode="m" glyph-name="m" horiz-adv-x="1650" d="M766 102V524Q766 627 751 672T705 745Q686 763 648 772T573 782Q524 782 470 754T377 664Q348 616 348 526V121Q348 68 389 68H463Q476 68 479 64T483 49V16Q483 -6 467 -6Q462 -6 438 -5T372 -2T281
0Q233 0 189 -1T120 -4T90 -6Q74 -6 74 12V49Q74 62 78 65T98 68H168Q196 68 199 119Q201 154 201 225V590Q201 626 189 651T143 694L100 717Q86 725 86 733V750Q86 760 98 766L279 858Q303 870 317 870Q336 870 336 842L344 723H350Q399 789 482 834T651 879Q730
879 790 837T883 721H893Q943 786 1025 832T1194 879Q1316 879 1378 817Q1425 768 1441 740Q1477 676 1477 565V109Q1477 68 1520 68H1575Q1588 68 1592 64T1597 49V14Q1597 -6 1583 -6Q1580 -6 1557 -5T1495 -2T1413 0Q1368 0 1324 -1T1253 -4T1223 -6Q1206 -6
1206 14V49Q1206 60 1211 64T1233 68H1284Q1322 68 1325 106Q1329 154 1329 272V575Q1329 693 1270 739Q1215 782 1118 782Q1071 782 1018 751T940 676Q925 648 919 612T912 554T911 469V115Q911 68 952 68H1022Q1035 68 1039 64T1044 49V16Q1044 -6 1030 -6Q1027
-6 1005 -5T941 -2T848 0Q799 0 754 -1T684 -4T655 -6Q641 -6 641 14V47Q641 60 644 64T662 68H721Q746 68 756 75T766 102Z" />
<glyph unicode="n" glyph-name="n" horiz-adv-x="1089" d="M918 639V111Q918 68 963 68H1028Q1051 68 1051 49V16Q1051 -6 1034 -6Q1031 -6 1006 -5T936 -2T840 0Q794 0 752 -1T684 -4T655 -6Q639 -6 639 16V49Q639 60 644 64T666 68H725Q763 68 766 115Q770 221
770 287V557Q770 609 768 634T753 690T711 741Q688 758 660 767T614 777T561 778T482 760T395 698Q348 646 348 559V135Q348 93 356 81T397 68H449Q469 68 469 47V12Q469 -6 455 -6Q451 -6 429 -5T365 -2T276 0Q230 0 188 -1T121 -4T94 -6Q80 -6 80 12V49Q80 68
100 68H160Q181 68 191 76T201 109V588Q201 668 117 709L100 717Q84 724 84 735V745Q84 759 102 766L279 864Q309 879 315 879Q329 879 332 854L346 729H350Q398 789 478 834T631 879Q736 879 805 834Q849 805 883 743T918 639Z" />
<glyph unicode="o" glyph-name="o" horiz-adv-x="1019" d="M496 -25Q414 -25 329 10T184 117Q116 198 94 267T72 451Q72 534 117 623T248 780Q376 879 522 879Q602 879 681 844T809 760Q948 618 948 426Q948 315 889 211T724 41T496 -25ZM520 37Q596 37 655 94T745
243T776 446Q776 527 749 599T680 718T592 790T506 817Q408 817 348 752Q288 691 264 619T240 430Q240 337 255 274T317 143Q393 37 520 37Z" />
<glyph unicode="p" glyph-name="p" horiz-adv-x="1052" d="M182 -82V580Q182 618 167 642T109 690L61 717Q47 723 47 735V752Q47 760 61 766L258 864Q292 881 305 881Q319 881 319 840L328 741H334Q379 800 457 839T633 879Q760 879 866 778Q926 718 951 647T977
459Q977 255 851 115T535 -25Q415 -25 330 10V-422Q330 -463 340 -476T375 -489H465Q483 -489 483 -510V-545Q483 -563 465 -563Q464 -563 438 -562T362 -559T254 -557Q202 -557 154 -558T79 -561T47 -563Q29 -563 29 -545V-508Q29 -489 53 -489H133Q150 -489 159
-482T171 -466T176 -438Q182 -393 182 -82ZM330 653V205Q330 165 338 140T373 96Q449 41 578 41Q624 41 664 59T739 116T794 223T815 383Q815 585 739 684T549 784Q484 784 426 749T330 653Z" />
<glyph unicode="q" glyph-name="q" horiz-adv-x="1040" d="M887 393V-74Q887 -292 897 -430Q900 -489 940 -489H1004Q1024 -489 1024 -502V-547Q1024 -563 1010 -563Q1004 -563 976 -562T902 -559T811 -557Q754 -557 705 -558T628 -561T596 -563Q580 -563 580
-545V-504Q580 -489 602 -489H686Q711 -489 721 -479T735 -446Q739 -416 739 23V74H735Q602 -25 442 -25Q394 -25 348 -15T251 25T163 101T101 226T76 406Q76 499 123 606T250 780Q362 879 520 879Q623 879 764 834L872 879Q886 882 891 877L909 862Q916 855 909
831Q902 805 893 696Q887 629 887 393ZM739 152V625Q733 676 707 714T645 773T573 803T504 813Q452 813 407 790T331 729T277 647T244 557T233 475Q233 406 242 352T272 257T304 196T342 145Q377 104 426 82T522 59Q590 59 648 86T739 152Z" />
<glyph unicode="r" glyph-name="r" horiz-adv-x="698" d="M199 352V545Q199 620 185 648T125 700L86 721Q70 726 70 735V748Q70 758 86 766L289 870Q304 879 317 879Q332 879 332 854L342 713H350Q400 789 466 840T596 891Q646 891 673 865T700 801Q700 759 672
730T614 700Q589 700 555 717Q529 733 487 733Q458 733 424 713T367 647Q358 633 352 611T346 582V152Q346 104 358 86T403 68H500Q514 68 514 49V12Q514 -6 504 -6Q502 -6 470 -5T387 -2T287 0Q231 0 178 -1T94 -4T61 -6Q49 -6 49 14V49Q49 60 53 64T72 68H152Q197
68 197 106Q199 174 199 352Z" />
<glyph unicode="s" glyph-name="s" horiz-adv-x="729" d="M340 -25Q274 -25 217 -5T133 35Q126 39 121 63L86 258Q84 270 98 274L125 281Q137 284 143 268L195 168Q215 132 226 115T257 78T305 49T373 41Q434 41 484 77T535 180Q535 251 492 294T336 369Q285 383
246 402T171 450T114 525T94 629Q94 734 179 806T381 879Q481 879 569 836Q603 820 606 799L637 655Q637 643 623 637L598 629Q588 626 580 639L510 733Q459 813 367 813Q304 813 257 777T209 678Q209 588 290 547Q319 533 406 508Q528 473 589 415T651 246Q650
124 562 50T340 -25Z" />
<glyph unicode="t" glyph-name="t" horiz-adv-x="653" d="M346 461V256Q346 202 357 164T386 108T420 83T453 76Q546 76 588 102Q602 112 612 98L623 80Q632 69 618 57Q592 31 532 3T391 -25Q318 -25 256 32T193 150Q193 198 196 316T199 442V487Q199 576 203
748H78Q47 748 47 772Q47 783 54 790T84 809Q126 834 212 926T317 1067Q326 1087 346 1087Q367 1087 367 1057L356 854H641Q650 854 654 848T655 836L635 764Q632 748 616 748H352Q346 606 346 461Z" />
<glyph unicode="u" glyph-name="u" horiz-adv-x="1036" d="M854 567V416Q854 217 858 174T875 117T911 102Q954 102 979 109Q999 114 1004 100L1010 74Q1012 58 999 55L784 -16Q757 -25 743 -25Q728 -25 725 0L709 119H705Q661 58 582 17T426 -25Q371 -25 325
-7T233 70Q178 142 166 207T154 441Q154 461 154 471V709Q153 749 134 765T76 786Q49 788 40 791T31 801V838Q31 847 35 850T53 854H236Q248 854 264 858Q268 858 276 859T287 860Q298 860 304 853T309 836Q301 760 301 600V455Q301 448 299 390T298 303T311 227T346
147Q380 98 418 84T510 70Q550 70 602 101T686 172Q707 198 707 227V715Q704 755 683 769T618 786Q573 786 573 801V836Q573 848 577 851T598 854H788Q803 854 823 858Q829 858 837 859T848 860Q857 860 862 854T866 840Q854 726 854 567Z" />
<glyph unicode="v" glyph-name="v" horiz-adv-x="886" d="M350 506Q360 472 409 345T473 188H479Q653 609 676 698Q686 740 677 763T639 786H598Q590 786 590 807V844Q590 860 602 860Q609 860 661 857T766 854Q814 854 863 857T913 860Q926 860 929 857T932 842V807Q932
786 922 786H883Q842 786 819 764Q798 745 742 629T655 436Q639 394 559 212T471 16Q461 -2 456 -9T441 -24T422 -31Q397 -31 379 12Q377 18 300 219T219 428Q218 431 194 497T146 630T115 711Q95 755 77 770T31 786H-10Q-23 786 -23 807V844Q-23 854 -19 857T0
860L52 857Q103 854 172 854Q237 854 296 857L356 860Q369 860 373 857T377 844V807Q377 786 362 786H322Q285 786 285 748Q285 724 309 638T350 506Z" />
<glyph unicode="w" glyph-name="w" horiz-adv-x="1404" d="M850 721L1006 223H1014L1180 674Q1199 727 1190 756T1149 786H1120Q1108 786 1108 803V846Q1108 860 1122 860Q1125 860 1147 859T1206 856T1280 854Q1332 854 1378 857T1430 860Q1444 860 1444 846V803Q1444
786 1430 786H1378Q1360 786 1341 776T1313 752Q1302 735 1232 566T1083 200T1001 -4Q992 -31 963 -31Q939 -31 926 8L725 592H715L463 2Q450 -31 420 -31Q399 -31 385 10L117 731Q106 761 87 773T31 786H-14Q-29 786 -29 805V844Q-29 860 -16 860Q-13 860 43 857T170
854Q224 854 279 857T342 860Q358 860 358 844V803Q358 786 342 786H324Q306 786 299 773T299 731L461 188H469L678 688Q672 737 659 754Q645 774 604 774H573Q559 774 559 788V831Q559 848 578 848Q582 848 607 847T675 844T762 842Q803 842 838 843T893 846T918
848Q936 848 936 834V791Q936 774 922 774H879Q863 774 854 759T850 721Z" />
<glyph unicode="x" glyph-name="x" horiz-adv-x="897" d="M311 51V10Q311 -6 297 -6L244 -3Q190 0 137 0Q92 0 58 -1T5 -4T-20 -6Q-39 -6 -39 12V49Q-39 68 -23 68H31Q90 68 115 92Q137 112 252 260T379 420Q318 515 245 618T137 758Q115 786 63 786H6Q-8 786
-8 801V842Q-8 853 -5 856T8 860Q13 860 35 859T96 856T176 854T261 855T333 858T367 860Q379 860 379 842V803Q379 786 367 786H348Q332 786 326 777T323 752T340 717L467 516L623 721Q638 739 632 762T600 786H575Q563 786 563 801V844Q563 860 573 860Q574 860
627 857T750 854Q786 854 811 855T849 858T866 860Q885 860 885 840V803Q885 793 882 790T868 786H836Q786 786 756 762Q722 734 504 465Q510 457 544 407T588 342T626 286T671 222T712 169T758 111Q794 68 848 68H881Q891 68 891 51V10Q891 -6 877 -6Q871 -6 852
-5T798 -2T719 0Q668 0 623 -1T552 -4T518 -6Q502 -6 502 12V47Q502 68 518 68H549Q567 68 572 87T561 133L414 369Q413 368 363 298T277 178T236 113Q227 96 233 82T258 68H301Q311 68 311 51Z" />
<glyph unicode="y" glyph-name="y" horiz-adv-x="892" d="M115 -557Q58 -557 28 -529T-2 -453Q-2 -421 26 -397T92 -373Q109 -373 128 -377T164 -388T186 -395Q213 -399 229 -383Q251 -357 310 -228T393 -33Q386 0 278 324T150 700Q128 746 109 766T53 786H0Q-16
786 -16 805V846Q-16 860 0 860Q5 860 27 859T92 856T188 854Q251 854 314 857T379 860Q397 860 397 846V803Q397 786 385 786H346Q313 786 319 741Q324 706 397 470T487 201H496Q512 226 605 449T707 709T706 766T672 786H639Q625 786 625 803V844Q625 860 637
860Q642 860 694 857T805 854Q836 854 879 857T930 860Q942 860 942 844V805Q942 786 932 786H899Q856 786 827 750Q811 730 783 675T698 494T615 308T506 61Q307 -392 289 -424Q253 -489 230 -512Q184 -557 115 -557Z" />
<glyph unicode="z" glyph-name="z" horiz-adv-x="888" d="M387 0H104Q69 0 92 35L618 793H401Q348 793 320 789T255 759T182 693T80 569Q68 554 57 561L31 573Q22 581 27 594L162 881Q192 870 260 862Q361 854 528 854H811Q826 854 831 845T829 825L287 63H578Q608
63 644 79T738 147T858 283Q868 298 885 289L905 274Q916 266 909 254L752 -25Q709 -7 567 -4Q485 0 387 0Z" />
<glyph unicode="{" glyph-name="braceleft" horiz-adv-x="724" d="M86 608Q86 626 93 636T113 647Q148 647 184 659Q215 670 233 708T252 797Q252 816 250 835T244 878T237 915T227 959T217 999Q180 1143 180 1212Q180 1283 212 1342T298 1439T413 1499T541 1526Q584
1530 637 1530Q672 1530 672 1501Q672 1464 647 1464Q604 1464 582 1462Q474 1448 407 1387T340 1225Q340 1121 356 1020Q373 903 373 846Q373 746 315 688Q301 671 282 654T256 627T248 608Q248 598 255 589T283 560T319 520Q341 497 357 456T373 365Q373 316
356 193Q340 87 340 -8Q340 -64 357 -109T398 -181T459 -231T522 -263T584 -281T657 -289Q672 -289 672 -326Q672 -354 657 -354Q616 -354 590 -352Q542 -350 492 -341T384 -307T283 -248T210 -155T180 -23Q180 48 217 186Q220 199 226 226T236 269T244 306T250
346T252 381Q252 509 186 551Q158 570 113 573Q102 575 94 585T86 608Z" />
<glyph unicode="|" glyph-name="bar" horiz-adv-x="716" d="M403 -532H317Q305 -532 305 -512V1542Q305 1561 317 1561H399Q414 1561 414 1536V-512Q414 -532 403 -532Z" />
<glyph unicode="}" glyph-name="braceright" horiz-adv-x="724" d="M639 608Q639 590 631 580T610 569Q577 569 541 557Q510 547 492 508T473 420Q473 403 474 387T481 347T489 313T500 271T510 231Q545 84 545 4Q545 -75 513 -141T427 -250T311 -319T182 -350Q141
-354 88 -354Q53 -354 53 -324Q53 -289 78 -289Q121 -289 143 -287Q250 -274 317 -200T385 -8Q385 89 369 211Q352 330 352 371Q352 422 369 463T408 528Q423 544 443 562T470 590T477 608Q477 618 470 627T441 656T403 696Q352 759 352 852Q352 887 369 1004Q385
1126 385 1196Q385 1255 361 1304T297 1384T218 1433T141 1458Q99 1464 72 1464Q53 1464 53 1497T70 1530Q109 1530 135 1528Q182 1526 233 1516T341 1481T442 1422T516 1332T545 1210Q545 1148 510 1010Q508 1002 500 973T489 933T481 901T475 865T473 836Q473
707 539 666Q566 647 610 643Q623 641 631 632T639 608Z" />
<glyph unicode="~" glyph-name="asciitilde" horiz-adv-x="1024" d="M799 633H907Q907 503 848 425T705 346Q675 346 644 356T592 379T535 414L455 469Q384 514 319 514Q285 514 255 474T225 350H117Q117 480 176 558T319 637Q405 637 483 588L569 530Q577 525
597 512T630 491T662 476T698 469Q741 469 770 509T799 633Z" />
</font>
</defs>
</svg>
